<svg width="120" height="120" viewBox="0 0 120 120" fill="none" xmlns="http://www.w3.org/2000/svg">
<g clip-path="url(#clip0_233_1776)">
<rect width="120" height="120" rx="60" fill="white"/>
<path d="M89.9287 42.7607C85.7487 42.7606 81.7401 41.1001 78.7845 38.1444C75.8289 35.1887 74.1685 31.1799 74.1686 27H62.9085V71.0922C62.9064 73.1024 62.2717 75.061 61.0943 76.6904C59.9168 78.3198 58.2564 79.5372 56.3484 80.1702C54.4404 80.8032 52.3816 80.8197 50.4637 80.2172C48.5459 79.6147 46.8663 78.4239 45.663 76.8135C44.4597 75.2031 43.7938 73.2549 43.7596 71.2449C43.7254 69.235 44.3247 67.2652 45.4726 65.6149C46.6204 63.9645 48.2586 62.7173 50.1548 62.05C52.0511 61.3827 54.1093 61.3291 56.0377 61.8969V50.9511C51.9395 50.3985 47.7702 51.1093 44.0866 52.9887C40.403 54.868 37.3803 57.8264 35.4223 61.4688C33.4643 65.1112 32.6641 69.2642 33.1286 73.3734C33.5931 77.4826 35.3001 81.3522 38.0217 84.4657C40.7434 87.5791 44.3501 89.7882 48.3603 90.7979C52.3704 91.8075 56.5932 91.5698 60.4647 90.1163C64.3362 88.6629 67.6721 86.0629 70.0271 82.6636C72.382 79.2643 73.6438 75.2275 73.6441 71.0922L73.9725 48.805C78.599 52.2012 84.1905 54.0287 89.9297 54.0201L89.9287 42.7607Z" fill="black"/>
</g>
<defs>
<clipPath id="clip0_233_1776">
<rect width="120" height="120" fill="white"/>
</clipPath>
</defs>
</svg>
