<svg width="120" height="120" viewBox="0 0 120 120" fill="none" xmlns="http://www.w3.org/2000/svg">
<g id="socials">
<rect id="Rectangle 1" width="120" height="120" rx="60" fill="white"/>
<g id="instagram">
<path d="M60 35.4217C67.9518 35.4217 69.0361 35.4217 72.2892 35.4217C75.1807 35.4217 76.6265 36.1446 77.7108 36.506C79.1566 37.2289 80.241 37.5904 81.3253 38.6747C82.4096 39.759 83.1325 40.8434 83.494 42.2892C83.8554 43.3735 84.2169 44.8193 84.5783 47.7108C84.5783 50.9639 84.5783 51.6867 84.5783 60C84.5783 68.3133 84.5783 69.0361 84.5783 72.2892C84.5783 75.1807 83.8554 76.6265 83.494 77.7108C82.7711 79.1566 82.4096 80.241 81.3253 81.3253C80.241 82.4096 79.1566 83.1325 77.7108 83.494C76.6265 83.8554 75.1807 84.2169 72.2892 84.5783C69.0361 84.5783 68.3133 84.5783 60 84.5783C51.6867 84.5783 50.9639 84.5783 47.7108 84.5783C44.8193 84.5783 43.3735 83.8554 42.2892 83.494C40.8434 82.7711 39.759 82.4096 38.6747 81.3253C37.5904 80.241 36.8675 79.1566 36.506 77.7108C36.1446 76.6265 35.7831 75.1807 35.4217 72.2892C35.4217 69.0361 35.4217 68.3133 35.4217 60C35.4217 51.6867 35.4217 50.9639 35.4217 47.7108C35.4217 44.8193 36.1446 43.3735 36.506 42.2892C37.2289 40.8434 37.5904 39.759 38.6747 38.6747C39.759 37.5904 40.8434 36.8675 42.2892 36.506C43.3735 36.1446 44.8193 35.7831 47.7108 35.4217C50.9639 35.4217 52.0482 35.4217 60 35.4217ZM60 30C51.6867 30 50.9639 30 47.7108 30C44.4578 30 42.2892 30.7229 40.4819 31.4458C38.6747 32.1687 36.8675 33.253 35.0602 35.0602C33.253 36.8675 32.5301 38.3133 31.4458 40.4819C30.7229 42.2892 30.3614 44.4578 30 47.7108C30 50.9639 30 52.0482 30 60C30 68.3133 30 69.0361 30 72.2892C30 75.5422 30.7229 77.7108 31.4458 79.5181C32.1687 81.3253 33.253 83.1325 35.0602 84.9398C36.8675 86.747 38.3133 87.4699 40.4819 88.5542C42.2892 89.2771 44.4578 89.6385 47.7108 90C50.9639 90 52.0482 90 60 90C67.9518 90 69.0361 90 72.2892 90C75.5422 90 77.7108 89.2771 79.5181 88.5542C81.3253 87.8313 83.1325 86.747 84.9398 84.9398C86.747 83.1325 87.4699 81.6868 88.5542 79.5181C89.2771 77.7108 89.6385 75.5422 90 72.2892C90 69.0361 90 67.9518 90 60C90 52.0482 90 50.9639 90 47.7108C90 44.4578 89.2771 42.2892 88.5542 40.4819C87.8313 38.6747 86.747 36.8675 84.9398 35.0602C83.1325 33.253 81.6868 32.5301 79.5181 31.4458C77.7108 30.7229 75.5422 30.3614 72.2892 30C69.0361 30 68.3133 30 60 30Z" fill="black"/>
<path d="M60 44.4578C51.3253 44.4578 44.4578 51.3253 44.4578 60C44.4578 68.6747 51.3253 75.5422 60 75.5422C68.6747 75.5422 75.5422 68.6747 75.5422 60C75.5422 51.3253 68.6747 44.4578 60 44.4578ZM60 70.1205C54.5783 70.1205 49.8795 65.7831 49.8795 60C49.8795 54.5783 54.2169 49.8795 60 49.8795C65.4217 49.8795 70.1205 54.2169 70.1205 60C70.1205 65.4217 65.4217 70.1205 60 70.1205Z" fill="black"/>
<path d="M75.9036 47.7108C77.8998 47.7108 79.5181 46.0926 79.5181 44.0964C79.5181 42.1002 77.8998 40.4819 75.9036 40.4819C73.9074 40.4819 72.2892 42.1002 72.2892 44.0964C72.2892 46.0926 73.9074 47.7108 75.9036 47.7108Z" fill="black"/>
</g>
</g>
</svg>
