<svg width="59" height="48" viewBox="0 0 59 48" fill="none" xmlns="http://www.w3.org/2000/svg">
<path d="M3.40909 26.1818C3.40909 23.3182 3.7803 20.6856 4.52273 18.2841C5.27273 15.875 6.34091 13.6591 7.72727 11.6364H10.0909C9.54545 12.3864 9.03409 13.3106 8.55682 14.4091C8.08712 15.5 7.67424 16.7008 7.31818 18.0114C6.96212 19.3144 6.68182 20.6629 6.47727 22.0568C6.2803 23.4508 6.18182 24.8258 6.18182 26.1818C6.18182 27.9848 6.35606 29.8144 6.70455 31.6705C7.05303 33.5265 7.52273 35.25 8.11364 36.8409C8.70455 38.4318 9.36364 39.7273 10.0909 40.7273H7.72727C6.34091 38.7045 5.27273 36.4924 4.52273 34.0909C3.7803 31.6818 3.40909 29.0455 3.40909 26.1818ZM54.6156 26.1818C54.6156 29.0455 54.2406 31.6818 53.4906 34.0909C52.7481 36.4924 51.6838 38.7045 50.2974 40.7273H47.9338C48.4792 39.9773 48.9868 39.053 49.4565 37.9545C49.9338 36.8636 50.3504 35.6667 50.7065 34.3636C51.0625 33.053 51.3391 31.7008 51.536 30.3068C51.7406 28.9053 51.8428 27.5303 51.8428 26.1818C51.8428 24.3788 51.6686 22.5492 51.3201 20.6932C50.9716 18.8371 50.5019 17.1136 49.911 15.5227C49.3201 13.9318 48.661 12.6364 47.9338 11.6364H50.2974C51.6838 13.6591 52.7481 15.875 53.4906 18.2841C54.2406 20.6856 54.6156 23.3182 54.6156 26.1818Z" fill="#1C31EA"/>
<g clip-path="url(#clip0_2009_712)">
<path d="M10.7102 20.117V17.5815H22.6562V20.117H18.2031V32.127H15.1634V20.117H10.7102ZM25.0514 17.5815L28.567 28.6326H28.702L32.2247 17.5815H35.6338L30.6196 32.127H26.6565L21.6352 17.5815H25.0514ZM43.0751 21.7647C43.0183 21.1918 42.7745 20.7467 42.3436 20.4295C41.9127 20.1123 41.328 19.9537 40.5893 19.9537C40.0875 19.9537 39.6637 20.0247 39.318 20.1667C38.9724 20.304 38.7072 20.4958 38.5226 20.742C38.3427 20.9882 38.2527 21.2676 38.2527 21.5801C38.2432 21.8405 38.2977 22.0678 38.4161 22.2619C38.5392 22.456 38.7072 22.6241 38.9203 22.7662C39.1334 22.9035 39.3796 23.0242 39.6589 23.1284C39.9383 23.2278 40.2366 23.313 40.5538 23.3841L41.8607 23.6966C42.4951 23.8386 43.0775 24.028 43.6078 24.2647C44.1381 24.5015 44.5974 24.7927 44.9857 25.1383C45.3739 25.484 45.6746 25.8912 45.8876 26.3599C46.1054 26.8287 46.2167 27.3661 46.2214 27.9721C46.2167 28.8623 45.9894 29.6341 45.5396 30.2875C45.0946 30.9361 44.4506 31.4404 43.6078 31.8002C42.7697 32.1554 41.7589 32.3329 40.5751 32.3329C39.4009 32.3329 38.3782 32.153 37.507 31.7931C36.6405 31.4333 35.9634 30.9006 35.4757 30.1951C34.9928 29.4849 34.7394 28.6066 34.7158 27.5602H37.6916C37.7248 28.0479 37.8644 28.4551 38.1107 28.7818C38.3616 29.1038 38.6954 29.3476 39.1121 29.5133C39.5335 29.6743 40.0093 29.7548 40.5396 29.7548C41.0605 29.7548 41.5126 29.679 41.8962 29.5275C42.2844 29.376 42.5851 29.1653 42.7982 28.8954C43.0112 28.6255 43.1178 28.3154 43.1178 27.965C43.1178 27.6383 43.0207 27.3637 42.8266 27.1412C42.6372 26.9186 42.3578 26.7292 41.9885 26.573C41.6239 26.4167 41.1765 26.2747 40.6462 26.1468L39.0624 25.7491C37.836 25.4508 36.8678 24.9844 36.1575 24.35C35.4473 23.7155 35.0946 22.8609 35.0993 21.786C35.0946 20.9054 35.3289 20.1359 35.8024 19.4778C36.2806 18.8197 36.9364 18.3059 37.7697 17.9366C38.6031 17.5673 39.55 17.3826 40.6107 17.3826C41.6902 17.3826 42.6324 17.5673 43.4374 17.9366C44.247 18.3059 44.8768 18.8197 45.3266 19.4778C45.7764 20.1359 46.0084 20.8983 46.0226 21.7647H43.0751Z" fill="black"/>
<a href="https://www.instagram.com/tvs.it/">
<rect fill="black" fill-opacity="0" y="2.89773" width="37.0169" height="24.2045"/>
</a>
</g>
<defs>
<clipPath id="clip0_2009_712">
<rect width="40" height="19" fill="white" transform="translate(10 16.5)"/>
</clipPath>
</defs>
</svg>
