<svg width="158" height="29" viewBox="0 0 158 29" fill="none" xmlns="http://www.w3.org/2000/svg">
<rect x="47.8789" width="2" height="29" fill="#0047AB"/>
<path d="M64.3745 11.2993V21.7456H62.8034V12.6459H57.8863V21.7456H56.3153V11.2993H64.3745ZM66.6621 24.6836V13.9109H68.1516V15.181H68.2791C68.3675 15.0178 68.495 14.829 68.6616 14.6148C68.8282 14.4006 69.0595 14.2135 69.3553 14.0537C69.6512 13.8905 70.0422 13.8089 70.5285 13.8089C71.161 13.8089 71.7255 13.9687 72.2219 14.2883C72.7184 14.608 73.1078 15.0688 73.39 15.6706C73.6756 16.2725 73.8185 16.9968 73.8185 17.8436C73.8185 18.6903 73.6773 19.4163 73.3951 20.0216C73.1129 20.6234 72.7252 21.0876 72.2321 21.4141C71.7391 21.7371 71.1763 21.8986 70.5438 21.8986C70.0677 21.8986 69.6784 21.8187 69.3757 21.6589C69.0765 21.4991 68.8419 21.312 68.6718 21.0978C68.5018 20.8836 68.3709 20.6932 68.2791 20.5265H68.1873V24.6836H66.6621ZM68.1567 17.8282C68.1567 18.3791 68.2366 18.862 68.3964 19.2769C68.5562 19.6917 68.7874 20.0165 69.0901 20.2511C69.3927 20.4823 69.7634 20.5979 70.202 20.5979C70.6577 20.5979 71.0386 20.4772 71.3446 20.2358C71.6507 19.991 71.8819 19.6594 72.0383 19.2412C72.1981 18.8229 72.278 18.3519 72.278 17.8282C72.278 17.3114 72.1998 16.8472 72.0434 16.4358C71.8904 16.0243 71.6592 15.6995 71.3497 15.4615C71.0437 15.2235 70.6611 15.1045 70.202 15.1045C69.76 15.1045 69.3859 15.2184 69.0799 15.4462C68.7772 15.674 68.5477 15.992 68.3913 16.4C68.2349 16.8081 68.1567 17.2842 68.1567 17.8282ZM78.8274 21.9037C78.0929 21.9037 77.4519 21.7354 76.9044 21.3988C76.3569 21.0621 75.9319 20.5911 75.6292 19.9859C75.3266 19.3806 75.1752 18.6733 75.1752 17.864C75.1752 17.0512 75.3266 16.3405 75.6292 15.7319C75.9319 15.1232 76.3569 14.6505 76.9044 14.3139C77.4519 13.9772 78.0929 13.8089 78.8274 13.8089C79.5619 13.8089 80.2029 13.9772 80.7503 14.3139C81.2978 14.6505 81.7229 15.1232 82.0255 15.7319C82.3282 16.3405 82.4795 17.0512 82.4795 17.864C82.4795 18.6733 82.3282 19.3806 82.0255 19.9859C81.7229 20.5911 81.2978 21.0621 80.7503 21.3988C80.2029 21.7354 79.5619 21.9037 78.8274 21.9037ZM78.8325 20.6234C79.3085 20.6234 79.703 20.4976 80.0158 20.246C80.3287 19.9944 80.5599 19.6594 80.7095 19.2412C80.8626 18.8229 80.9391 18.3621 80.9391 17.8589C80.9391 17.359 80.8626 16.8999 80.7095 16.4817C80.5599 16.06 80.3287 15.7217 80.0158 15.4666C79.703 15.2116 79.3085 15.0841 78.8325 15.0841C78.353 15.0841 77.9551 15.2116 77.6389 15.4666C77.3261 15.7217 77.0931 16.06 76.9401 16.4817C76.7905 16.8999 76.7157 17.359 76.7157 17.8589C76.7157 18.3621 76.7905 18.8229 76.9401 19.2412C77.0931 19.6594 77.3261 19.9944 77.6389 20.246C77.9551 20.4976 78.353 20.6234 78.8325 20.6234ZM85.6764 19.6084L89.1296 13.9109H90.772V21.7456H89.2775V16.043L85.8396 21.7456H84.1819V13.9109H85.6764V19.6084ZM92.3583 19.6747H93.9191C93.9395 19.9944 94.0841 20.2409 94.3527 20.4143C94.6247 20.5877 94.9767 20.6745 95.4085 20.6745C95.8472 20.6745 96.2213 20.5809 96.5307 20.3939C96.8401 20.2035 96.9949 19.9093 96.9949 19.5115C96.9949 19.2735 96.9354 19.066 96.8163 18.8892C96.7007 18.709 96.5358 18.5696 96.3216 18.4709C96.1107 18.3723 95.8608 18.323 95.5718 18.323H94.2966V17.1243H95.5718C96.0036 17.1243 96.3267 17.0257 96.5409 16.8285C96.7551 16.6313 96.8623 16.3847 96.8623 16.0889C96.8623 15.7693 96.7466 15.5125 96.5154 15.3187C96.2876 15.1215 95.9696 15.0229 95.5616 15.0229C95.1467 15.0229 94.8016 15.1164 94.5261 15.3034C94.2507 15.487 94.1062 15.7251 94.0926 16.0175H92.5521C92.5623 15.5788 92.695 15.1946 92.95 14.8647C93.2084 14.5315 93.5553 14.273 93.9905 14.0894C94.4292 13.9024 94.9274 13.8089 95.4851 13.8089C96.0665 13.8089 96.5698 13.9024 96.9949 14.0894C97.4199 14.2764 97.7481 14.5349 97.9793 14.8647C98.2139 15.1946 98.3313 15.5737 98.3313 16.0022C98.3313 16.4341 98.202 16.7877 97.9436 17.0631C97.6886 17.3352 97.3553 17.5307 96.9439 17.6497V17.7313C97.2465 17.7517 97.5151 17.8436 97.7498 18.0068C97.9844 18.17 98.168 18.3859 98.3007 18.6546C98.4333 18.9232 98.4996 19.2275 98.4996 19.5676C98.4996 20.0471 98.367 20.4619 98.1017 20.8122C97.8399 21.1624 97.476 21.4328 97.0102 21.6232C96.5477 21.8102 96.0189 21.9037 95.4238 21.9037C94.8458 21.9037 94.3272 21.8136 93.8681 21.6334C93.4125 21.4498 93.0503 21.1913 92.7817 20.8581C92.5164 20.5248 92.3753 20.1304 92.3583 19.6747ZM100.074 21.7456V13.9109H103.324C104.208 13.9109 104.908 14.0996 105.425 14.4771C105.942 14.8511 106.2 15.3595 106.2 16.0022C106.2 16.4613 106.054 16.8251 105.762 17.0937C105.469 17.3624 105.082 17.5426 104.599 17.6344C104.949 17.6752 105.27 17.7806 105.563 17.9507C105.855 18.1173 106.09 18.3417 106.267 18.624C106.447 18.9062 106.537 19.2429 106.537 19.6339C106.537 20.0488 106.43 20.416 106.216 20.7357C106.001 21.0519 105.69 21.3001 105.282 21.4804C104.878 21.6572 104.39 21.7456 103.818 21.7456H100.074ZM101.508 20.4704H103.818C104.196 20.4704 104.492 20.3803 104.706 20.2001C104.92 20.0199 105.027 19.775 105.027 19.4656C105.027 19.1017 104.92 18.8161 104.706 18.6087C104.492 18.3978 104.196 18.2924 103.818 18.2924H101.508V20.4704ZM101.508 17.1754H103.339C103.625 17.1754 103.869 17.1346 104.073 17.0529C104.281 16.9713 104.439 16.8557 104.548 16.7061C104.66 16.5531 104.716 16.3728 104.716 16.1654C104.716 15.8628 104.592 15.6264 104.344 15.4564C104.096 15.2864 103.755 15.2014 103.324 15.2014H101.508V17.1754ZM111.51 21.9037C110.776 21.9037 110.135 21.7354 109.587 21.3988C109.04 21.0621 108.615 20.5911 108.312 19.9859C108.009 19.3806 107.858 18.6733 107.858 17.864C107.858 17.0512 108.009 16.3405 108.312 15.7319C108.615 15.1232 109.04 14.6505 109.587 14.3139C110.135 13.9772 110.776 13.8089 111.51 13.8089C112.245 13.8089 112.886 13.9772 113.433 14.3139C113.981 14.6505 114.406 15.1232 114.708 15.7319C115.011 16.3405 115.162 17.0512 115.162 17.864C115.162 18.6733 115.011 19.3806 114.708 19.9859C114.406 20.5911 113.981 21.0621 113.433 21.3988C112.886 21.7354 112.245 21.9037 111.51 21.9037ZM111.515 20.6234C111.991 20.6234 112.386 20.4976 112.699 20.246C113.012 19.9944 113.243 19.6594 113.392 19.2412C113.545 18.8229 113.622 18.3621 113.622 17.8589C113.622 17.359 113.545 16.8999 113.392 16.4817C113.243 16.06 113.012 15.7217 112.699 15.4666C112.386 15.2116 111.991 15.0841 111.515 15.0841C111.036 15.0841 110.638 15.2116 110.322 15.4666C110.009 15.7217 109.776 16.06 109.623 16.4817C109.473 16.8999 109.399 17.359 109.399 17.8589C109.399 18.3621 109.473 18.8229 109.623 19.2412C109.776 19.6594 110.009 19.9944 110.322 20.246C110.638 20.4976 111.036 20.6234 111.515 20.6234ZM116.1 24.0052V20.4245H116.737C116.9 20.2749 117.038 20.0964 117.15 19.8889C117.266 19.6815 117.363 19.435 117.441 19.1493C117.523 18.8637 117.591 18.5304 117.645 18.1496C117.7 17.7653 117.747 17.3267 117.788 16.8336L118.033 13.9109H123.358V20.4245H124.562V24.0052H123.072V21.7456H117.609V24.0052H116.1ZM118.369 20.4245H121.869V15.2167H119.4L119.237 16.8336C119.158 17.6565 119.06 18.3706 118.941 18.9759C118.822 19.5778 118.631 20.0607 118.369 20.4245ZM129.353 21.9037C128.594 21.9037 127.941 21.732 127.394 21.3886C126.85 21.0417 126.432 20.5639 126.139 19.9553C125.847 19.3466 125.7 18.6495 125.7 17.864C125.7 17.0682 125.85 16.366 126.149 15.7574C126.449 15.1453 126.87 14.6675 127.414 14.3241C127.958 13.9806 128.599 13.8089 129.337 13.8089C129.932 13.8089 130.463 13.9194 130.929 14.1404C131.395 14.3581 131.77 14.6641 132.056 15.0586C132.345 15.453 132.517 15.9138 132.571 16.4409H131.087C131.005 16.0736 130.818 15.7574 130.526 15.4921C130.237 15.2269 129.849 15.0943 129.363 15.0943C128.938 15.0943 128.565 15.2065 128.246 15.4309C127.929 15.6519 127.683 15.9682 127.506 16.3796C127.329 16.7877 127.241 17.2706 127.241 17.8282C127.241 18.3995 127.328 18.8926 127.501 19.3075C127.674 19.7223 127.919 20.0437 128.236 20.2715C128.555 20.4993 128.931 20.6132 129.363 20.6132C129.652 20.6132 129.914 20.5605 130.148 20.4551C130.386 20.3463 130.585 20.1916 130.745 19.991C130.908 19.7903 131.022 19.5489 131.087 19.2667H132.571C132.517 19.7733 132.352 20.2256 132.076 20.6234C131.801 21.0213 131.432 21.3341 130.97 21.562C130.51 21.7898 129.971 21.9037 129.353 21.9037ZM133.609 15.2269V13.9109H140.22V15.2269H137.664V21.7456H136.175V15.2269H133.609ZM141.833 21.7456V13.9109H145.082C145.966 13.9109 146.667 14.0996 147.183 14.4771C147.7 14.8511 147.959 15.3595 147.959 16.0022C147.959 16.4613 147.813 16.8251 147.52 17.0937C147.228 17.3624 146.84 17.5426 146.357 17.6344C146.707 17.6752 147.029 17.7806 147.321 17.9507C147.614 18.1173 147.848 18.3417 148.025 18.624C148.205 18.9062 148.295 19.2429 148.295 19.6339C148.295 20.0488 148.188 20.416 147.974 20.7357C147.76 21.0519 147.449 21.3001 147.041 21.4804C146.636 21.6572 146.148 21.7456 145.577 21.7456H141.833ZM143.266 20.4704H145.577C145.954 20.4704 146.25 20.3803 146.464 20.2001C146.678 20.0199 146.786 19.775 146.786 19.4656C146.786 19.1017 146.678 18.8161 146.464 18.6087C146.25 18.3978 145.954 18.2924 145.577 18.2924H143.266V20.4704ZM143.266 17.1754H145.097C145.383 17.1754 145.628 17.1346 145.832 17.0529C146.039 16.9713 146.197 16.8557 146.306 16.7061C146.418 16.5531 146.474 16.3728 146.474 16.1654C146.474 15.8628 146.35 15.6264 146.102 15.4564C145.854 15.2864 145.514 15.2014 145.082 15.2014H143.266V17.1754ZM153.269 21.9037C152.534 21.9037 151.893 21.7354 151.346 21.3988C150.798 21.0621 150.373 20.5911 150.07 19.9859C149.768 19.3806 149.616 18.6733 149.616 17.864C149.616 17.0512 149.768 16.3405 150.07 15.7319C150.373 15.1232 150.798 14.6505 151.346 14.3139C151.893 13.9772 152.534 13.8089 153.269 13.8089C154.003 13.8089 154.644 13.9772 155.192 14.3139C155.739 14.6505 156.164 15.1232 156.467 15.7319C156.769 16.3405 156.921 17.0512 156.921 17.864C156.921 18.6733 156.769 19.3806 156.467 19.9859C156.164 20.5911 155.739 21.0621 155.192 21.3988C154.644 21.7354 154.003 21.9037 153.269 21.9037ZM153.274 20.6234C153.75 20.6234 154.144 20.4976 154.457 20.246C154.77 19.9944 155.001 19.6594 155.151 19.2412C155.304 18.8229 155.38 18.3621 155.38 17.8589C155.38 17.359 155.304 16.8999 155.151 16.4817C155.001 16.06 154.77 15.7217 154.457 15.4666C154.144 15.2116 153.75 15.0841 153.274 15.0841C152.794 15.0841 152.396 15.2116 152.08 15.4666C151.767 15.7217 151.534 16.06 151.381 16.4817C151.232 16.8999 151.157 17.359 151.157 17.8589C151.157 18.3621 151.232 18.8229 151.381 19.2412C151.534 19.6594 151.767 19.9944 152.08 20.246C152.396 20.4976 152.794 20.6234 153.274 20.6234Z" fill="black"/>
<path d="M1.20099 7.18182H4.80398L8.60938 16.4659H8.77131L12.5767 7.18182H16.1797V21H13.3459V12.006H13.2312L9.65518 20.9325H7.7255L4.1495 11.9723H4.0348V21H1.20099V7.18182ZM18.5867 7.18182H21.5015V15.8722H21.6162L27.5874 7.18182H30.1446V21H27.2231V12.3029H27.1219L21.1169 21H18.5867V7.18182ZM41.7278 7.18182V9.59055H35.4799V21H32.5584V7.18182H41.7278Z" fill="black"/>
</svg>
