<svg width="330" height="60" viewBox="0 0 330 60" fill="none" xmlns="http://www.w3.org/2000/svg">
<rect x="100" width="5" height="60" fill="#0047AB"/>
<path d="M134.453 23.1818V45H131.172V25.9943H120.902V45H117.621V23.1818H134.453ZM139.231 51.1364V28.6364H142.342V31.2891H142.608C142.793 30.9482 143.059 30.554 143.407 30.1065C143.755 29.6591 144.238 29.2685 144.856 28.9347C145.474 28.5938 146.291 28.4233 147.306 28.4233C148.627 28.4233 149.806 28.7571 150.843 29.4247C151.88 30.0923 152.694 31.0547 153.283 32.3118C153.88 33.5689 154.178 35.0817 154.178 36.8501C154.178 38.6186 153.883 40.1349 153.294 41.3991C152.704 42.6562 151.895 43.6257 150.865 44.3075C149.835 44.9822 148.659 45.3196 147.338 45.3196C146.344 45.3196 145.531 45.1527 144.899 44.8189C144.274 44.4851 143.784 44.0945 143.429 43.647C143.074 43.1996 142.8 42.8018 142.608 42.4538H142.417V51.1364H139.231ZM142.353 36.8182C142.353 37.9687 142.52 38.9773 142.853 39.8438C143.187 40.7102 143.67 41.3885 144.302 41.8786C144.934 42.3615 145.708 42.603 146.625 42.603C147.576 42.603 148.372 42.3509 149.011 41.8466C149.65 41.3352 150.133 40.6428 150.46 39.7692C150.794 38.8956 150.961 37.9119 150.961 36.8182C150.961 35.7386 150.797 34.7692 150.471 33.9098C150.151 33.0504 149.668 32.3722 149.022 31.875C148.382 31.3778 147.583 31.1293 146.625 31.1293C145.701 31.1293 144.92 31.3672 144.281 31.843C143.649 32.3189 143.169 32.983 142.843 33.8352C142.516 34.6875 142.353 35.6818 142.353 36.8182ZM164.64 45.3303C163.105 45.3303 161.767 44.9787 160.623 44.2756C159.48 43.5724 158.592 42.5888 157.96 41.3246C157.328 40.0604 157.012 38.5831 157.012 36.8928C157.012 35.1953 157.328 33.7109 157.96 32.4396C158.592 31.1683 159.48 30.1811 160.623 29.478C161.767 28.7749 163.105 28.4233 164.64 28.4233C166.174 28.4233 167.512 28.7749 168.656 29.478C169.799 30.1811 170.687 31.1683 171.319 32.4396C171.951 33.7109 172.267 35.1953 172.267 36.8928C172.267 38.5831 171.951 40.0604 171.319 41.3246C170.687 42.5888 169.799 43.5724 168.656 44.2756C167.512 44.9787 166.174 45.3303 164.64 45.3303ZM164.65 42.6562C165.645 42.6562 166.468 42.3935 167.122 41.8679C167.775 41.3423 168.258 40.6428 168.571 39.7692C168.89 38.8956 169.05 37.9332 169.05 36.8821C169.05 35.8381 168.89 34.8793 168.571 34.0057C168.258 33.125 167.775 32.4183 167.122 31.8857C166.468 31.353 165.645 31.0866 164.65 31.0866C163.649 31.0866 162.818 31.353 162.157 31.8857C161.504 32.4183 161.017 33.125 160.698 34.0057C160.385 34.8793 160.229 35.8381 160.229 36.8821C160.229 37.9332 160.385 38.8956 160.698 39.7692C161.017 40.6428 161.504 41.3423 162.157 41.8679C162.818 42.3935 163.649 42.6562 164.65 42.6562ZM178.944 40.5362L186.157 28.6364H189.587V45H186.466V33.0895L179.285 45H175.823V28.6364H178.944V40.5362ZM192.9 40.6747H196.16C196.203 41.3423 196.505 41.8572 197.066 42.2195C197.634 42.5817 198.369 42.7628 199.271 42.7628C200.187 42.7628 200.969 42.5675 201.615 42.1768C202.261 41.7791 202.584 41.1648 202.584 40.3338C202.584 39.8366 202.46 39.4034 202.211 39.0341C201.97 38.6577 201.626 38.3665 201.178 38.1605C200.738 37.9545 200.216 37.8516 199.612 37.8516H196.949V35.348H199.612C200.514 35.348 201.189 35.142 201.636 34.7301C202.084 34.3182 202.307 33.8033 202.307 33.1854C202.307 32.5178 202.066 31.9815 201.583 31.5767C201.107 31.1648 200.443 30.9588 199.591 30.9588C198.724 30.9588 198.003 31.1541 197.428 31.5447C196.853 31.9283 196.551 32.4254 196.523 33.0362H193.305C193.327 32.12 193.604 31.3175 194.136 30.6286C194.676 29.9325 195.4 29.3928 196.309 29.0092C197.226 28.6186 198.266 28.4233 199.431 28.4233C200.645 28.4233 201.697 28.6186 202.584 29.0092C203.472 29.3999 204.157 29.9396 204.64 30.6286C205.131 31.3175 205.376 32.1094 205.376 33.0043C205.376 33.9062 205.106 34.6449 204.566 35.2202C204.033 35.7884 203.337 36.1967 202.478 36.4453V36.6158C203.11 36.6584 203.671 36.8501 204.161 37.1911C204.651 37.532 205.035 37.983 205.312 38.544C205.589 39.1051 205.727 39.7408 205.727 40.451C205.727 41.4524 205.45 42.3189 204.896 43.0504C204.349 43.782 203.589 44.3466 202.616 44.7443C201.65 45.1349 200.546 45.3303 199.303 45.3303C198.096 45.3303 197.013 45.142 196.054 44.7656C195.102 44.3821 194.346 43.8423 193.785 43.1463C193.231 42.4503 192.936 41.6264 192.9 40.6747ZM209.016 45V28.6364H215.803C217.649 28.6364 219.112 29.0305 220.192 29.8189C221.271 30.6001 221.811 31.6619 221.811 33.0043C221.811 33.9631 221.506 34.723 220.895 35.2841C220.284 35.8452 219.474 36.2216 218.466 36.4134C219.197 36.4986 219.869 36.7187 220.479 37.0739C221.09 37.4219 221.58 37.8906 221.95 38.4801C222.326 39.0696 222.514 39.7727 222.514 40.5895C222.514 41.456 222.29 42.223 221.843 42.8906C221.396 43.5511 220.746 44.0696 219.893 44.446C219.048 44.8153 218.029 45 216.836 45H209.016ZM212.01 42.3366H216.836C217.624 42.3366 218.242 42.1484 218.69 41.772C219.137 41.3956 219.361 40.8842 219.361 40.2379C219.361 39.478 219.137 38.8814 218.69 38.4482C218.242 38.0078 217.624 37.7876 216.836 37.7876H212.01V42.3366ZM212.01 35.4545H215.835C216.431 35.4545 216.942 35.3693 217.369 35.1989C217.802 35.0284 218.132 34.7869 218.359 34.4744C218.594 34.1548 218.711 33.7784 218.711 33.3452C218.711 32.7131 218.452 32.2195 217.933 31.8643C217.415 31.5092 216.705 31.3317 215.803 31.3317H212.01V35.4545ZM232.901 45.3303C231.367 45.3303 230.028 44.9787 228.885 44.2756C227.741 43.5724 226.854 42.5888 226.222 41.3246C225.589 40.0604 225.273 38.5831 225.273 36.8928C225.273 35.1953 225.589 33.7109 226.222 32.4396C226.854 31.1683 227.741 30.1811 228.885 29.478C230.028 28.7749 231.367 28.4233 232.901 28.4233C234.435 28.4233 235.774 28.7749 236.918 29.478C238.061 30.1811 238.949 31.1683 239.581 32.4396C240.213 33.7109 240.529 35.1953 240.529 36.8928C240.529 38.5831 240.213 40.0604 239.581 41.3246C238.949 42.5888 238.061 43.5724 236.918 44.2756C235.774 44.9787 234.435 45.3303 232.901 45.3303ZM232.912 42.6562C233.906 42.6562 234.73 42.3935 235.384 41.8679C236.037 41.3423 236.52 40.6428 236.832 39.7692C237.152 38.8956 237.312 37.9332 237.312 36.8821C237.312 35.8381 237.152 34.8793 236.832 34.0057C236.52 33.125 236.037 32.4183 235.384 31.8857C234.73 31.353 233.906 31.0866 232.912 31.0866C231.911 31.0866 231.08 31.353 230.419 31.8857C229.766 32.4183 229.279 33.125 228.96 34.0057C228.647 34.8793 228.491 35.8381 228.491 36.8821C228.491 37.9332 228.647 38.8956 228.96 39.7692C229.279 40.6428 229.766 41.3423 230.419 41.8679C231.08 42.3935 231.911 42.6562 232.912 42.6562ZM242.487 49.7195V42.2408H243.818C244.159 41.9283 244.447 41.5554 244.681 41.1222C244.923 40.6889 245.125 40.174 245.289 39.5774C245.459 38.9808 245.601 38.2848 245.715 37.4893C245.828 36.6868 245.928 35.7706 246.013 34.7408L246.524 28.6364H257.646V42.2408H260.161V49.7195H257.05V45H245.64V49.7195H242.487ZM247.227 42.2408H254.536V31.3636H249.379L249.039 34.7408C248.875 36.4595 248.669 37.951 248.421 39.2152C248.172 40.4723 247.774 41.4808 247.227 42.2408ZM270.167 45.3303C268.583 45.3303 267.219 44.9716 266.076 44.2543C264.94 43.5298 264.066 42.532 263.455 41.2607C262.844 39.9893 262.539 38.5334 262.539 36.8928C262.539 35.2308 262.852 33.7642 263.477 32.4929C264.102 31.2145 264.982 30.2166 266.119 29.4993C267.255 28.782 268.594 28.4233 270.135 28.4233C271.378 28.4233 272.486 28.6541 273.459 29.1158C274.432 29.5703 275.217 30.2095 275.813 31.0334C276.417 31.8572 276.776 32.8196 276.889 33.9205H273.789C273.619 33.1534 273.228 32.4929 272.617 31.9389C272.013 31.3849 271.204 31.108 270.188 31.108C269.3 31.108 268.523 31.3423 267.855 31.8111C267.195 32.2727 266.68 32.9332 266.31 33.7926C265.941 34.6449 265.756 35.6534 265.756 36.8182C265.756 38.0114 265.938 39.0412 266.3 39.9077C266.662 40.7741 267.173 41.4453 267.834 41.9212C268.501 42.397 269.286 42.6349 270.188 42.6349C270.792 42.6349 271.339 42.5249 271.829 42.3047C272.326 42.0774 272.741 41.7543 273.075 41.3352C273.416 40.9162 273.654 40.4119 273.789 39.8224H276.889C276.776 40.8807 276.431 41.8253 275.856 42.6562C275.281 43.4872 274.51 44.1406 273.544 44.6165C272.585 45.0923 271.46 45.3303 270.167 45.3303ZM279.057 31.3849V28.6364H292.864V31.3849H287.527V45H284.416V31.3849H279.057ZM296.233 45V28.6364H303.019C304.866 28.6364 306.329 29.0305 307.409 29.8189C308.488 30.6001 309.028 31.6619 309.028 33.0043C309.028 33.9631 308.722 34.723 308.112 35.2841C307.501 35.8452 306.691 36.2216 305.683 36.4134C306.414 36.4986 307.085 36.7187 307.696 37.0739C308.307 37.4219 308.797 37.8906 309.166 38.4801C309.543 39.0696 309.731 39.7727 309.731 40.5895C309.731 41.456 309.507 42.223 309.06 42.8906C308.612 43.5511 307.963 44.0696 307.11 44.446C306.265 44.8153 305.246 45 304.053 45H296.233ZM299.227 42.3366H304.053C304.841 42.3366 305.459 42.1484 305.906 41.772C306.354 41.3956 306.578 40.8842 306.578 40.2379C306.578 39.478 306.354 38.8814 305.906 38.4482C305.459 38.0078 304.841 37.7876 304.053 37.7876H299.227V42.3366ZM299.227 35.4545H303.051C303.648 35.4545 304.159 35.3693 304.585 35.1989C305.019 35.0284 305.349 34.7869 305.576 34.4744C305.811 34.1548 305.928 33.7784 305.928 33.3452C305.928 32.7131 305.669 32.2195 305.15 31.8643C304.632 31.5092 303.921 31.3317 303.019 31.3317H299.227V35.4545ZM320.118 45.3303C318.584 45.3303 317.245 44.9787 316.102 44.2756C314.958 43.5724 314.07 42.5888 313.438 41.3246C312.806 40.0604 312.49 38.5831 312.49 36.8928C312.49 35.1953 312.806 33.7109 313.438 32.4396C314.07 31.1683 314.958 30.1811 316.102 29.478C317.245 28.7749 318.584 28.4233 320.118 28.4233C321.652 28.4233 322.991 28.7749 324.134 29.478C325.278 30.1811 326.166 31.1683 326.798 32.4396C327.43 33.7109 327.746 35.1953 327.746 36.8928C327.746 38.5831 327.43 40.0604 326.798 41.3246C326.166 42.5888 325.278 43.5724 324.134 44.2756C322.991 44.9787 321.652 45.3303 320.118 45.3303ZM320.129 42.6562C321.123 42.6562 321.947 42.3935 322.6 41.8679C323.254 41.3423 323.737 40.6428 324.049 39.7692C324.369 38.8956 324.529 37.9332 324.529 36.8821C324.529 35.8381 324.369 34.8793 324.049 34.0057C323.737 33.125 323.254 32.4183 322.6 31.8857C321.947 31.353 321.123 31.0866 320.129 31.0866C319.127 31.0866 318.296 31.353 317.636 31.8857C316.982 32.4183 316.496 33.125 316.176 34.0057C315.864 34.8793 315.708 35.8381 315.708 36.8821C315.708 37.9332 315.864 38.8956 316.176 39.7692C316.496 40.6428 316.982 41.3423 317.636 41.8679C318.296 42.3935 319.127 42.6562 320.129 42.6562Z" fill="white"/>
<path d="M2.52841 15.9091H10.1136L18.125 35.4545H18.4659L26.4773 15.9091H34.0625V45H28.0966V26.0653H27.8551L20.3267 44.858H16.2642L8.7358 25.9943H8.49432V45H2.52841V15.9091ZM39.13 15.9091H45.2663V34.2045H45.5078L58.0788 15.9091H63.4624V45H57.3118V26.6903H57.0987L44.4567 45H39.13V15.9091ZM87.848 15.9091V20.9801H74.6946V45H68.544V15.9091H87.848Z" fill="white"/>
</svg>
